<svg t="1681963551359" class="icon" viewBox="0 0 1024 1024" version="1.1" xmlns="http://www.w3.org/2000/svg" p-id="10925" width="200" height="200"><path d="M512 64C264.533333 64 64 264.533333 64 512S264.533333 960 512 960 960 759.466667 960 512 759.466667 64 512 64zM512 896c-209.066667 0-384-170.666667-384-384s170.666667-384 384-384 384 170.666667 384 384-174.933333 384-384 384z" fill="#1A1311" p-id="10926"></path><path d="M499.2 644.266667c-42.666667 0-51.2 8.533333-51.2 51.2s8.533333 51.2 51.2 51.2c38.4 0 51.2-8.533333 51.2-51.2 0-46.933333-12.8-51.2-51.2-51.2zM494.933333 277.333333c-34.133333 0-68.266667 4.266667-98.133333 12.8v72.533334c25.6-8.533333 55.466667-12.8 85.333333-12.8 55.466667 0 72.533333 8.533333 72.533334 55.466666 0 34.133333-8.533333 42.666667-38.4 68.266667-42.666667 34.133333-55.466667 55.466667-55.466667 93.866667v29.866666h72.533333v-17.066666c0-25.6 8.533333-38.4 46.933334-68.266667 42.666667-25.6 59.733333-64 64-119.466667 0-89.6-46.933333-115.2-149.333334-115.2z" fill="#1A1311" p-id="10927"></path></svg>